key_frame=1
pkt_pts_time=0.000000
--
pkt_pts_time=0.967633
key_frame=1
pkt_pts_time=1.001000
--
pkt_pts_time=1.968633
key_frame=1
pkt_pts_time=2.002000
--
pkt_pts_time=2.969633
key_frame=1
pkt_pts_time=3.003000
--
pkt_pts_time=3.970633
key_frame=1
pkt_pts_time=4.004000
--
pkt_pts_time=4.971633
key_frame=1
pkt_pts_time=5.005000
--
pkt_pts_time=5.972633
key_frame=1
pkt_pts_time=6.006000
--
pkt_pts_time=6.973633
key_frame=1
pkt_pts_time=7.007000
--
pkt_pts_time=7.974633
key_frame=1
pkt_pts_time=8.008000
--
pkt_pts_time=8.975633
key_frame=1
pkt_pts_time=9.009000
--
pkt_pts_time=9.976633
key_frame=1
pkt_pts_time=10.010000
--
pkt_pts_time=10.977633
key_frame=1
pkt_pts_time=11.011000
--
pkt_pts_time=11.978633
key_frame=1
pkt_pts_time=12.012000
--
pkt_pts_time=12.979633
key_frame=1
pkt_pts_time=13.013000
--
pkt_pts_time=13.980633
key_frame=1
pkt_pts_time=14.014000
--
pkt_pts_time=14.981633
key_frame=1
pkt_pts_time=15.015000
--
pkt_pts_time=15.982633
key_frame=1
pkt_pts_time=16.016000
--
pkt_pts_time=16.983633
key_frame=1
pkt_pts_time=17.017000
--
pkt_pts_time=17.984633
key_frame=1
pkt_pts_time=18.018000
--
pkt_pts_time=18.985633
key_frame=1
pkt_pts_time=19.019000
--
pkt_pts_time=19.986633
key_frame=1
pkt_pts_time=20.020000
--
pkt_pts_time=20.987633
key_frame=1
pkt_pts_time=21.021000
--
pkt_pts_time=21.988633
key_frame=1
pkt_pts_time=22.022000
--
pkt_pts_time=22.989633
key_frame=1
pkt_pts_time=23.023000
--
pkt_pts_time=23.990633
key_frame=1
pkt_pts_time=24.024000
--
pkt_pts_time=24.991633
key_frame=1
pkt_pts_time=25.025000
--
pkt_pts_time=25.992633
key_frame=1
pkt_pts_time=26.026000
--
pkt_pts_time=26.993633
key_frame=1
pkt_pts_time=27.027000
--
pkt_pts_time=27.994633
key_frame=1
pkt_pts_time=28.028000
--
pkt_pts_time=28.995633
key_frame=1
pkt_pts_time=29.029000
--
pkt_pts_time=29.996633
key_frame=1
pkt_pts_time=30.030000
--
pkt_pts_time=30.997633
key_frame=1
pkt_pts_time=31.031000
--
pkt_pts_time=31.998633
key_frame=1
pkt_pts_time=32.032000
--
pkt_pts_time=32.999633
key_frame=1
pkt_pts_time=33.033000
--
pkt_pts_time=34.000633
key_frame=1
pkt_pts_time=34.034000
--
pkt_pts_time=35.001633
key_frame=1
pkt_pts_time=35.035000
--
pkt_pts_time=36.002633
key_frame=1
pkt_pts_time=36.036000
--
pkt_pts_time=37.003633
key_frame=1
pkt_pts_time=37.037000
--
pkt_pts_time=38.004633
key_frame=1
pkt_pts_time=38.038000
--
pkt_pts_time=39.005633
key_frame=1
pkt_pts_time=39.039000
--
pkt_pts_time=40.006633
key_frame=1
pkt_pts_time=40.040000
--
pkt_pts_time=41.007633
key_frame=1
pkt_pts_time=41.041000
--
pkt_pts_time=42.008633
key_frame=1
pkt_pts_time=42.042000
--
pkt_pts_time=43.009633
key_frame=1
pkt_pts_time=43.043000
--
pkt_pts_time=44.010633
key_frame=1
pkt_pts_time=44.044000
--
pkt_pts_time=45.011633
key_frame=1
pkt_pts_time=45.045000
--
pkt_pts_time=46.012633
key_frame=1
pkt_pts_time=46.046000
--
pkt_pts_time=47.013633
key_frame=1
pkt_pts_time=47.047000
--
pkt_pts_time=48.014633
key_frame=1
pkt_pts_time=48.048000
--
pkt_pts_time=49.015633
key_frame=1
pkt_pts_time=49.049000
--
pkt_pts_time=50.016633
key_frame=1
pkt_pts_time=50.050000
--
pkt_pts_time=51.017633
key_frame=1
pkt_pts_time=51.051000
--
pkt_pts_time=52.018633
key_frame=1
pkt_pts_time=52.052000
--
pkt_pts_time=53.019633
key_frame=1
pkt_pts_time=53.053000
--
pkt_pts_time=54.020633
key_frame=1
pkt_pts_time=54.054000
--
pkt_pts_time=55.021633
key_frame=1
pkt_pts_time=55.055000
--
pkt_pts_time=56.022633
key_frame=1
pkt_pts_time=56.056000
--
pkt_pts_time=57.023633
key_frame=1
pkt_pts_time=57.057000
--
pkt_pts_time=58.024633
key_frame=1
pkt_pts_time=58.058000
--
pkt_pts_time=59.025633
key_frame=1
pkt_pts_time=59.059000
--
pkt_pts_time=60.026633
key_frame=1
pkt_pts_time=60.060000
--
pkt_pts_time=61.027633
key_frame=1
pkt_pts_time=61.061000
--
pkt_pts_time=62.028633
key_frame=1
pkt_pts_time=62.062000
--
pkt_pts_time=63.029633
key_frame=1
pkt_pts_time=63.063000
--
pkt_pts_time=64.030633
key_frame=1
pkt_pts_time=64.064000
--
pkt_pts_time=65.031633
key_frame=1
pkt_pts_time=65.065000
--
pkt_pts_time=66.032633
key_frame=1
pkt_pts_time=66.066000
--
pkt_pts_time=67.033633
key_frame=1
pkt_pts_time=67.067000
--
pkt_pts_time=68.034633
key_frame=1
pkt_pts_time=68.068000
--
pkt_pts_time=69.035633
key_frame=1
pkt_pts_time=69.069000
--
pkt_pts_time=70.036633
key_frame=1
pkt_pts_time=70.070000
--
pkt_pts_time=71.037633
key_frame=1
pkt_pts_time=71.071000
--
pkt_pts_time=72.038633
key_frame=1
pkt_pts_time=72.072000
--
pkt_pts_time=73.039633
key_frame=1
pkt_pts_time=73.073000
--
pkt_pts_time=74.040633
key_frame=1
pkt_pts_time=74.074000
--
pkt_pts_time=75.041633
key_frame=1
pkt_pts_time=75.075000
--
pkt_pts_time=76.042633
key_frame=1
pkt_pts_time=76.076000
--
pkt_pts_time=77.043633
key_frame=1
pkt_pts_time=77.077000
--
pkt_pts_time=78.044633
key_frame=1
pkt_pts_time=78.078000
--
pkt_pts_time=79.045633
key_frame=1
pkt_pts_time=79.079000
--
pkt_pts_time=80.046633
key_frame=1
pkt_pts_time=80.080000
--
pkt_pts_time=81.047633
key_frame=1
pkt_pts_time=81.081000
--
pkt_pts_time=82.048633
key_frame=1
pkt_pts_time=82.082000
--
pkt_pts_time=83.049633
key_frame=1
pkt_pts_time=83.083000
--
pkt_pts_time=84.050633
key_frame=1
pkt_pts_time=84.084000
--
pkt_pts_time=85.051633
key_frame=1
pkt_pts_time=85.085000
--
pkt_pts_time=86.052633
key_frame=1
pkt_pts_time=86.086000
--
pkt_pts_time=87.053633
key_frame=1
pkt_pts_time=87.087000
--
pkt_pts_time=88.054633
key_frame=1
pkt_pts_time=88.088000
--
pkt_pts_time=89.055633
key_frame=1
pkt_pts_time=89.089000
--
pkt_pts_time=90.056633
key_frame=1
pkt_pts_time=90.090000
--
pkt_pts_time=91.057633
key_frame=1
pkt_pts_time=91.091000
--
pkt_pts_time=92.058633
key_frame=1
pkt_pts_time=92.092000
--
pkt_pts_time=93.059633
key_frame=1
pkt_pts_time=93.093000
--
pkt_pts_time=94.060633
key_frame=1
pkt_pts_time=94.094000
--
pkt_pts_time=95.061633
key_frame=1
pkt_pts_time=95.095000
--
pkt_pts_time=96.062633
key_frame=1
pkt_pts_time=96.096000
--
pkt_pts_time=97.063633
key_frame=1
pkt_pts_time=97.097000
--
pkt_pts_time=98.064633
key_frame=1
pkt_pts_time=98.098000
--
pkt_pts_time=99.065633
key_frame=1
pkt_pts_time=99.099000
--
pkt_pts_time=100.066633
key_frame=1
pkt_pts_time=100.100000
--
pkt_pts_time=101.067633
key_frame=1
pkt_pts_time=101.101000
--
pkt_pts_time=102.068633
key_frame=1
pkt_pts_time=102.102000
--
pkt_pts_time=103.069633
key_frame=1
pkt_pts_time=103.103000
--
pkt_pts_time=104.070633
key_frame=1
pkt_pts_time=104.104000
--
pkt_pts_time=105.071633
key_frame=1
pkt_pts_time=105.105000
--
pkt_pts_time=106.072633
key_frame=1
pkt_pts_time=106.106000
--
pkt_pts_time=107.073633
key_frame=1
pkt_pts_time=107.107000
--
pkt_pts_time=108.074633
key_frame=1
pkt_pts_time=108.108000
--
pkt_pts_time=109.075633
key_frame=1
pkt_pts_time=109.109000
--
pkt_pts_time=110.076633
key_frame=1
pkt_pts_time=110.110000
--
pkt_pts_time=111.077633
key_frame=1
pkt_pts_time=111.111000
--
pkt_pts_time=112.078633
key_frame=1
pkt_pts_time=112.112000
--
pkt_pts_time=113.079633
key_frame=1
pkt_pts_time=113.113000
--
pkt_pts_time=114.080633
key_frame=1
pkt_pts_time=114.114000
--
pkt_pts_time=115.081633
key_frame=1
pkt_pts_time=115.115000
--
pkt_pts_time=116.082633
key_frame=1
pkt_pts_time=116.116000
--
pkt_pts_time=117.083633
key_frame=1
pkt_pts_time=117.117000
--
pkt_pts_time=118.084633
key_frame=1
pkt_pts_time=118.118000
--
pkt_pts_time=119.085633
key_frame=1
pkt_pts_time=119.119000
--
pkt_pts_time=120.086633
key_frame=1
pkt_pts_time=120.120000
--
pkt_pts_time=121.087633
key_frame=1
pkt_pts_time=121.121000
--
pkt_pts_time=122.088633
key_frame=1
pkt_pts_time=122.122000
--
pkt_pts_time=123.089633
key_frame=1
pkt_pts_time=123.123000
--
pkt_pts_time=124.090633
key_frame=1
pkt_pts_time=124.124000
--
pkt_pts_time=125.091633
key_frame=1
pkt_pts_time=125.125000
--
pkt_pts_time=126.092633
key_frame=1
pkt_pts_time=126.126000
--
pkt_pts_time=127.093633
key_frame=1
pkt_pts_time=127.127000
--
pkt_pts_time=128.094633
key_frame=1
pkt_pts_time=128.128000
--
pkt_pts_time=129.095633
key_frame=1
pkt_pts_time=129.129000
--
pkt_pts_time=130.096633
key_frame=1
pkt_pts_time=130.130000
--
pkt_pts_time=131.097633
key_frame=1
pkt_pts_time=131.131000
--
pkt_pts_time=132.098633
key_frame=1
pkt_pts_time=132.132000
--
pkt_pts_time=133.099633
key_frame=1
pkt_pts_time=133.133000
--
pkt_pts_time=134.100633
key_frame=1
pkt_pts_time=134.134000
--
pkt_pts_time=135.101633
key_frame=1
pkt_pts_time=135.135000
--
pkt_pts_time=136.102633
key_frame=1
pkt_pts_time=136.136000
--
pkt_pts_time=137.103633
key_frame=1
pkt_pts_time=137.137000
--
pkt_pts_time=138.104633
key_frame=1
pkt_pts_time=138.138000
--
pkt_pts_time=139.105633
key_frame=1
pkt_pts_time=139.139000
--
pkt_pts_time=140.106633
key_frame=1
pkt_pts_time=140.140000
--
pkt_pts_time=141.107633
key_frame=1
pkt_pts_time=141.141000
--
pkt_pts_time=142.108633
key_frame=1
pkt_pts_time=142.142000
--
pkt_pts_time=143.109633
key_frame=1
pkt_pts_time=143.143000
--
pkt_pts_time=144.110633
key_frame=1
pkt_pts_time=144.144000
--
pkt_pts_time=145.111633
key_frame=1
pkt_pts_time=145.145000
--
pkt_pts_time=146.112633
key_frame=1
pkt_pts_time=146.146000
--
pkt_pts_time=147.113633
key_frame=1
pkt_pts_time=147.147000
--
pkt_pts_time=148.114633
key_frame=1
pkt_pts_time=148.148000
--
pkt_pts_time=149.115633
key_frame=1
pkt_pts_time=149.149000
--
pkt_pts_time=150.116633
key_frame=1
pkt_pts_time=150.150000
--
pkt_pts_time=151.117633
key_frame=1
pkt_pts_time=151.151000
--
pkt_pts_time=152.118633
key_frame=1
pkt_pts_time=152.152000
--
pkt_pts_time=153.119633
key_frame=1
pkt_pts_time=153.153000
--
pkt_pts_time=154.120633
key_frame=1
pkt_pts_time=154.154000
--
pkt_pts_time=155.121633
key_frame=1
pkt_pts_time=155.155000
--
pkt_pts_time=156.122633
key_frame=1
pkt_pts_time=156.156000
--
pkt_pts_time=157.123633
key_frame=1
pkt_pts_time=157.157000
--
pkt_pts_time=158.124633
key_frame=1
pkt_pts_time=158.158000
--
pkt_pts_time=159.125633
key_frame=1
pkt_pts_time=159.159000
--
pkt_pts_time=160.126633
key_frame=1
pkt_pts_time=160.160000
--
pkt_pts_time=161.127633
key_frame=1
pkt_pts_time=161.161000
--
pkt_pts_time=162.128633
key_frame=1
pkt_pts_time=162.162000
--
pkt_pts_time=163.129633
key_frame=1
pkt_pts_time=163.163000
--
pkt_pts_time=164.130633
key_frame=1
pkt_pts_time=164.164000
--
pkt_pts_time=165.131633
key_frame=1
pkt_pts_time=165.165000
--
pkt_pts_time=166.132633
key_frame=1
pkt_pts_time=166.166000
--
pkt_pts_time=167.133633
key_frame=1
pkt_pts_time=167.167000
--
pkt_pts_time=168.134633
key_frame=1
pkt_pts_time=168.168000
--
pkt_pts_time=169.135633
key_frame=1
pkt_pts_time=169.169000
--
pkt_pts_time=170.136633
key_frame=1
pkt_pts_time=170.170000
--
pkt_pts_time=171.137633
key_frame=1
pkt_pts_time=171.171000
--
pkt_pts_time=172.138633
key_frame=1
pkt_pts_time=172.172000
--
pkt_pts_time=173.139633
key_frame=1
pkt_pts_time=173.173000
--
pkt_pts_time=174.140633
key_frame=1
pkt_pts_time=174.174000
--
pkt_pts_time=175.141633
key_frame=1
pkt_pts_time=175.175000
--
pkt_pts_time=176.142633
key_frame=1
pkt_pts_time=176.176000
--
pkt_pts_time=177.143633
key_frame=1
pkt_pts_time=177.177000
--
pkt_pts_time=178.144633
key_frame=1
pkt_pts_time=178.178000
--
pkt_pts_time=179.145633
key_frame=1
pkt_pts_time=179.179000
--
pkt_pts_time=180.146633
key_frame=1
pkt_pts_time=180.180000
--
pkt_pts_time=181.147633
key_frame=1
pkt_pts_time=181.181000
--
pkt_pts_time=182.148633
key_frame=1
pkt_pts_time=182.182000
--
pkt_pts_time=183.149633
key_frame=1
pkt_pts_time=183.183000
--
pkt_pts_time=184.150633
key_frame=1
pkt_pts_time=184.184000
--
pkt_pts_time=185.151633
key_frame=1
pkt_pts_time=185.185000
--
pkt_pts_time=186.152633
key_frame=1
pkt_pts_time=186.186000
--
pkt_pts_time=187.153633
key_frame=1
pkt_pts_time=187.187000
--
pkt_pts_time=188.154633
key_frame=1
pkt_pts_time=188.188000
--
pkt_pts_time=189.155633
key_frame=1
pkt_pts_time=189.189000
--
pkt_pts_time=190.156633
key_frame=1
pkt_pts_time=190.190000
--
pkt_pts_time=191.157633
key_frame=1
pkt_pts_time=191.191000
--
pkt_pts_time=192.158633
key_frame=1
pkt_pts_time=192.192000
--
pkt_pts_time=193.159633
key_frame=1
pkt_pts_time=193.193000
--
pkt_pts_time=194.160633
key_frame=1
pkt_pts_time=194.194000
--
pkt_pts_time=195.161633
key_frame=1
pkt_pts_time=195.195000
--
pkt_pts_time=196.162633
key_frame=1
pkt_pts_time=196.196000
--
pkt_pts_time=197.163633
key_frame=1
pkt_pts_time=197.197000
--
pkt_pts_time=198.164633
key_frame=1
pkt_pts_time=198.198000
--
pkt_pts_time=199.165633
key_frame=1
pkt_pts_time=199.199000
--
pkt_pts_time=200.166633
key_frame=1
pkt_pts_time=200.200000
--
pkt_pts_time=201.167633
key_frame=1
pkt_pts_time=201.201000
--
pkt_pts_time=202.168633
key_frame=1
pkt_pts_time=202.202000
--
pkt_pts_time=203.169633
key_frame=1
pkt_pts_time=203.203000
--
pkt_pts_time=204.170633
key_frame=1
pkt_pts_time=204.204000
--
pkt_pts_time=205.171633
key_frame=1
pkt_pts_time=205.205000
--
pkt_pts_time=206.172633
key_frame=1
pkt_pts_time=206.206000
--
pkt_pts_time=207.173633
key_frame=1
pkt_pts_time=207.207000
--
pkt_pts_time=208.174633
key_frame=1
pkt_pts_time=208.208000
--
pkt_pts_time=209.175633
key_frame=1
pkt_pts_time=209.209000
--
pkt_pts_time=210.176633
key_frame=1
pkt_pts_time=210.210000
--
pkt_pts_time=211.177633
key_frame=1
pkt_pts_time=211.211000
--
pkt_pts_time=212.178633
key_frame=1
pkt_pts_time=212.212000
--
pkt_pts_time=213.179633
key_frame=1
pkt_pts_time=213.213000
--
pkt_pts_time=214.180633
key_frame=1
pkt_pts_time=214.214000
--
pkt_pts_time=215.181633
key_frame=1
pkt_pts_time=215.215000
--
pkt_pts_time=216.182633
key_frame=1
pkt_pts_time=216.216000
--
pkt_pts_time=217.183633
key_frame=1
pkt_pts_time=217.217000
--
pkt_pts_time=218.184633
key_frame=1
pkt_pts_time=218.218000
--
pkt_pts_time=219.185633
key_frame=1
pkt_pts_time=219.219000
--
pkt_pts_time=220.186633
key_frame=1
pkt_pts_time=220.220000
--
pkt_pts_time=221.187633
key_frame=1
pkt_pts_time=221.221000
--
pkt_pts_time=222.188633
key_frame=1
pkt_pts_time=222.222000
--
pkt_pts_time=223.189633
key_frame=1
pkt_pts_time=223.223000
--
pkt_pts_time=224.190633
key_frame=1
pkt_pts_time=224.224000
--
pkt_pts_time=225.191633
key_frame=1
pkt_pts_time=225.225000
--
pkt_pts_time=226.192633
key_frame=1
pkt_pts_time=226.226000
--
pkt_pts_time=227.193633
key_frame=1
pkt_pts_time=227.227000
--
pkt_pts_time=228.194633
key_frame=1
pkt_pts_time=228.228000
--
pkt_pts_time=229.195633
key_frame=1
pkt_pts_time=229.229000
--
pkt_pts_time=230.196633
key_frame=1
pkt_pts_time=230.230000
--
pkt_pts_time=231.197633
key_frame=1
pkt_pts_time=231.231000
--
pkt_pts_time=232.198633
key_frame=1
pkt_pts_time=232.232000
--
pkt_pts_time=233.199633
key_frame=1
pkt_pts_time=233.233000
--
pkt_pts_time=234.200633
key_frame=1
pkt_pts_time=234.234000
--
pkt_pts_time=235.201633
key_frame=1
pkt_pts_time=235.235000
--
pkt_pts_time=236.202633
key_frame=1
pkt_pts_time=236.236000
--
pkt_pts_time=237.203633
key_frame=1
pkt_pts_time=237.237000
--
pkt_pts_time=238.204633
key_frame=1
pkt_pts_time=238.238000
--
pkt_pts_time=239.205633
key_frame=1
pkt_pts_time=239.239000
--
pkt_pts_time=240.206633
key_frame=1
pkt_pts_time=240.240000
--
pkt_pts_time=241.207633
key_frame=1
pkt_pts_time=241.241000
--
pkt_pts_time=242.208633
key_frame=1
pkt_pts_time=242.242000
--
pkt_pts_time=243.209633
key_frame=1
pkt_pts_time=243.243000
--
pkt_pts_time=244.210633
key_frame=1
pkt_pts_time=244.244000
--
pkt_pts_time=245.211633
key_frame=1
pkt_pts_time=245.245000
--
pkt_pts_time=246.212633
key_frame=1
pkt_pts_time=246.246000
--
pkt_pts_time=247.213633
key_frame=1
pkt_pts_time=247.247000
--
pkt_pts_time=248.214633
key_frame=1
pkt_pts_time=248.248000
--
pkt_pts_time=249.215633
key_frame=1
pkt_pts_time=249.249000
--
pkt_pts_time=250.216633
key_frame=1
pkt_pts_time=250.250000
--
pkt_pts_time=251.217633
key_frame=1
pkt_pts_time=251.251000
--
pkt_pts_time=252.218633
key_frame=1
pkt_pts_time=252.252000
--
pkt_pts_time=253.219633
key_frame=1
pkt_pts_time=253.253000
--
pkt_pts_time=254.220633
key_frame=1
pkt_pts_time=254.254000
--
pkt_pts_time=255.221633
key_frame=1
pkt_pts_time=255.255000
--
pkt_pts_time=256.222633
key_frame=1
pkt_pts_time=256.256000
--
pkt_pts_time=257.223633
key_frame=1
pkt_pts_time=257.257000
--
pkt_pts_time=258.224633
key_frame=1
pkt_pts_time=258.258000
--
pkt_pts_time=259.225633
key_frame=1
pkt_pts_time=259.259000
--
pkt_pts_time=260.226633
key_frame=1
pkt_pts_time=260.260000
--
pkt_pts_time=261.227633
key_frame=1
pkt_pts_time=261.261000
--
pkt_pts_time=262.228633
key_frame=1
pkt_pts_time=262.262000
--
pkt_pts_time=263.229633
key_frame=1
pkt_pts_time=263.263000
--
pkt_pts_time=264.230633
key_frame=1
pkt_pts_time=264.264000
--
pkt_pts_time=265.231633
key_frame=1
pkt_pts_time=265.265000
--
pkt_pts_time=266.232633
key_frame=1
pkt_pts_time=266.266000
--
pkt_pts_time=267.233633
key_frame=1
pkt_pts_time=267.267000
--
pkt_pts_time=268.234633
key_frame=1
pkt_pts_time=268.268000
--
pkt_pts_time=269.235633
key_frame=1
pkt_pts_time=269.269000
--
pkt_pts_time=270.236633
key_frame=1
pkt_pts_time=270.270000
--
pkt_pts_time=271.237633
key_frame=1
pkt_pts_time=271.271000
--
pkt_pts_time=272.238633
key_frame=1
pkt_pts_time=272.272000
--
pkt_pts_time=273.239633
key_frame=1
pkt_pts_time=273.273000
--
pkt_pts_time=274.240633
key_frame=1
pkt_pts_time=274.274000
--
pkt_pts_time=275.241633
key_frame=1
pkt_pts_time=275.275000
--
pkt_pts_time=276.242633
key_frame=1
pkt_pts_time=276.276000
--
pkt_pts_time=277.243633
key_frame=1
pkt_pts_time=277.277000
--
pkt_pts_time=278.244633
key_frame=1
pkt_pts_time=278.278000
--
pkt_pts_time=279.245633
key_frame=1
pkt_pts_time=279.279000
--
pkt_pts_time=280.246633
key_frame=1
pkt_pts_time=280.280000
--
pkt_pts_time=281.247633
key_frame=1
pkt_pts_time=281.281000
--
pkt_pts_time=282.248633
key_frame=1
pkt_pts_time=282.282000
--
pkt_pts_time=283.249633
key_frame=1
pkt_pts_time=283.283000
--
pkt_pts_time=284.250633
key_frame=1
pkt_pts_time=284.284000
--
pkt_pts_time=285.251633
key_frame=1
pkt_pts_time=285.285000
--
pkt_pts_time=286.252633
key_frame=1
pkt_pts_time=286.286000
--
pkt_pts_time=287.253633
key_frame=1
pkt_pts_time=287.287000
--
pkt_pts_time=288.254633
key_frame=1
pkt_pts_time=288.288000
--
pkt_pts_time=289.255633
key_frame=1
pkt_pts_time=289.289000
--
pkt_pts_time=290.256633
key_frame=1
pkt_pts_time=290.290000
--
pkt_pts_time=291.257633
key_frame=1
pkt_pts_time=291.291000
--
pkt_pts_time=292.258633
key_frame=1
pkt_pts_time=292.292000
--
pkt_pts_time=293.259633
key_frame=1
pkt_pts_time=293.293000
--
pkt_pts_time=294.260633
key_frame=1
pkt_pts_time=294.294000
--
pkt_pts_time=295.261633
key_frame=1
pkt_pts_time=295.295000
--
pkt_pts_time=296.262633
key_frame=1
pkt_pts_time=296.296000
--
pkt_pts_time=297.263633
key_frame=1
pkt_pts_time=297.297000
--
pkt_pts_time=298.264633
key_frame=1
pkt_pts_time=298.298000
--
pkt_pts_time=299.265633
key_frame=1
pkt_pts_time=299.299000
--
pkt_pts_time=300.266633
key_frame=1
pkt_pts_time=300.300000
--
pkt_pts_time=301.267633
key_frame=1
pkt_pts_time=301.301000
--
pkt_pts_time=302.268633
key_frame=1
pkt_pts_time=302.302000
--
pkt_pts_time=303.269633
key_frame=1
pkt_pts_time=303.303000
--
pkt_pts_time=304.270633
key_frame=1
pkt_pts_time=304.304000
--
pkt_pts_time=305.271633
key_frame=1
pkt_pts_time=305.305000
--
pkt_pts_time=306.272633
key_frame=1
pkt_pts_time=306.306000
--
pkt_pts_time=307.273633
key_frame=1
pkt_pts_time=307.307000
--
pkt_pts_time=308.274633
key_frame=1
pkt_pts_time=308.308000
--
pkt_pts_time=309.275633
key_frame=1
pkt_pts_time=309.309000
--
pkt_pts_time=310.276633
key_frame=1
pkt_pts_time=310.310000
--
pkt_pts_time=311.277633
key_frame=1
pkt_pts_time=311.311000
--
pkt_pts_time=312.278633
key_frame=1
pkt_pts_time=312.312000
--
pkt_pts_time=313.279633
key_frame=1
pkt_pts_time=313.313000
--
pkt_pts_time=314.280633
key_frame=1
pkt_pts_time=314.314000
--
pkt_pts_time=315.281633
key_frame=1
pkt_pts_time=315.315000
--
pkt_pts_time=316.282633
key_frame=1
pkt_pts_time=316.316000
--
pkt_pts_time=317.283633
key_frame=1
pkt_pts_time=317.317000
--
pkt_pts_time=318.284633
key_frame=1
pkt_pts_time=318.318000
--
pkt_pts_time=319.285633
key_frame=1
pkt_pts_time=319.319000
--
pkt_pts_time=320.286633
key_frame=1
pkt_pts_time=320.320000
--
pkt_pts_time=321.287633
key_frame=1
pkt_pts_time=321.321000
--
pkt_pts_time=322.288633
key_frame=1
pkt_pts_time=322.322000
--
pkt_pts_time=323.289633
key_frame=1
pkt_pts_time=323.323000
--
pkt_pts_time=324.290633
key_frame=1
pkt_pts_time=324.324000
--
pkt_pts_time=325.291633
key_frame=1
pkt_pts_time=325.325000
--
pkt_pts_time=326.292633
key_frame=1
pkt_pts_time=326.326000
--
pkt_pts_time=327.293633
key_frame=1
pkt_pts_time=327.327000
--
pkt_pts_time=328.294633
key_frame=1
pkt_pts_time=328.328000
--
pkt_pts_time=329.295633
key_frame=1
pkt_pts_time=329.329000
--
pkt_pts_time=330.296633
key_frame=1
pkt_pts_time=330.330000
--
pkt_pts_time=331.297633
key_frame=1
pkt_pts_time=331.331000
--
pkt_pts_time=332.298633
key_frame=1
pkt_pts_time=332.332000
--
pkt_pts_time=333.299633
key_frame=1
pkt_pts_time=333.333000
--
pkt_pts_time=334.300633
key_frame=1
pkt_pts_time=334.334000
--
pkt_pts_time=335.301633
key_frame=1
pkt_pts_time=335.335000
--
pkt_pts_time=336.302633
key_frame=1
pkt_pts_time=336.336000
--
pkt_pts_time=337.303633
key_frame=1
pkt_pts_time=337.337000
--
pkt_pts_time=338.304633
key_frame=1
pkt_pts_time=338.338000
--
pkt_pts_time=339.305633
key_frame=1
pkt_pts_time=339.339000
--
pkt_pts_time=340.306633
key_frame=1
pkt_pts_time=340.340000
--
pkt_pts_time=341.307633
key_frame=1
pkt_pts_time=341.341000
--
pkt_pts_time=342.308633
key_frame=1
pkt_pts_time=342.342000
--
pkt_pts_time=343.309633
key_frame=1
pkt_pts_time=343.343000
--
pkt_pts_time=344.310633
key_frame=1
pkt_pts_time=344.344000
--
pkt_pts_time=345.311633
key_frame=1
pkt_pts_time=345.345000
--
pkt_pts_time=346.312633
key_frame=1
pkt_pts_time=346.346000
--
pkt_pts_time=347.313633
key_frame=1
pkt_pts_time=347.347000
--
pkt_pts_time=348.314633
key_frame=1
pkt_pts_time=348.348000
--
pkt_pts_time=349.315633
key_frame=1
pkt_pts_time=349.349000
--
pkt_pts_time=350.316633
key_frame=1
pkt_pts_time=350.350000
--
pkt_pts_time=351.317633
key_frame=1
pkt_pts_time=351.351000
--
pkt_pts_time=352.318633
key_frame=1
pkt_pts_time=352.352000
--
pkt_pts_time=353.319633
key_frame=1
pkt_pts_time=353.353000
--
pkt_pts_time=354.320633
key_frame=1
pkt_pts_time=354.354000
--
pkt_pts_time=355.321633
key_frame=1
pkt_pts_time=355.355000
--
pkt_pts_time=356.322633
key_frame=1
pkt_pts_time=356.356000
--
pkt_pts_time=357.323633
key_frame=1
pkt_pts_time=357.357000
--
pkt_pts_time=358.324633
key_frame=1
pkt_pts_time=358.358000
--
pkt_pts_time=359.325633
key_frame=1
pkt_pts_time=359.359000
--
pkt_pts_time=360.326633
key_frame=1
pkt_pts_time=360.360000
